Motion_pl07
version=1
nRows=16
nColumns=43
inDegrees=yes
endheader
time	pelvis_tilt	pelvis_list	pelvis_rotation	pelvis_tx	pelvis_ty	pelvis_tz	hip_flexion_r	hip_adduction_r	hip_rotation_r	knee_angle_r	ankle_angle_r	subtalar_angle_r	mtp_angle_r	hip_flexion_l	hip_adduction_l	hip_rotation_l	knee_angle_l	ankle_angle_l	subtalar_angle_l	mtp_angle_l	lumbar_extension	lumbar_bending	lumbar_rotation	neck_flexion	neck_lateral_bending	neck_rotation	arm_flex_r	arm_add_r	arm_rot_r	elbow_flex_r	pro_sup_r	wrist_flex_r	wrist_dev_r	hand_finger_flex_r	arm_flex_l	arm_add_l	arm_rot_l	elbow_flex_l	pro_sup_l	wrist_flex_l	wrist_dev_l	hand_finger_flex_l
      0.00250000	     -2.12764502	    -14.97443543	     90.50334384	     -0.01157393	      2.05432619	      1.59907310	     16.34930938	     -6.55735054	      3.25831508	    -19.94905020	     11.21625081	     -5.33859280	      3.49700749	     14.37699221	     -0.78473180	      2.86356698	    -16.38193792	     11.33638421	     -2.76472297	      2.34961516	    -14.55258725	     -3.86703216	     -1.49993902	     -0.80052395	      4.16873154	     -4.54969795	     15.94886523	    -33.14816897	    -23.38281264	     46.49818937	    132.09586041	    -32.16090872	      5.78165170	     19.60917158	      8.58234306	    -35.64870651	    -23.80462424	     53.86950341	    120.63466750	    -31.98790681	      6.92896018	     52.01355224
      0.00500000	     -2.12677185	    -14.97678296	     90.50433559	     -0.01153246	      2.05424279	      1.59914626	     16.34971784	     -6.55790303	      3.25834507	    -19.94902522	     11.21618195	     -5.33868356	      3.49699745	     14.37779462	     -0.78437680	      2.86356210	    -16.38166911	     11.33645043	     -2.76466807	      2.34961923	    -14.55638036	     -3.86739822	     -1.49895896	     -0.80180879	      4.16852097	     -4.55008412	     15.94901548	    -33.14830526	    -23.38268512	     46.49859686	    132.09568065	    -32.16117566	      5.78150634	     19.60933329	      8.58201319	    -35.64895653	    -23.80512101	     53.86961311	    120.63494645	    -31.98786148	      6.92879795	     52.01357191
      0.00750000	     -2.11266844	    -14.93497008	     90.56090699	     -0.01141116	      2.05442957	      1.60024175	     16.50724219	     -6.53847364	      3.26126472	    -20.20314728	     11.13836280	     -5.35024056	      3.49331860	     14.55337769	     -0.79488006	      2.86602688	    -16.62614471	     11.28877188	     -2.74059167	      2.34742310	    -14.81669054	     -3.86783550	     -1.52284841	     -1.00977531	      4.16924368	     -4.69237517	     15.95449526	    -33.20772371	    -23.37041290	     46.72995396	    132.01260081	    -32.30284148	      5.73821474	     19.67502737	      8.64359321	    -35.67975370	    -23.93364633	     54.15364057	    120.75541562	    -31.98353445	      6.81074139	     52.02161232
      0.01000000	     -2.11167182	    -14.93757870	     90.56157321	     -0.01136598	      2.05434359	      1.60031404	     16.50741332	     -6.53934143	      3.26122340	    -20.20316753	     11.13845623	     -5.35031475	      3.49332176	     14.55492923	     -0.79454018	      2.86596060	    -16.62562106	     11.28896693	     -2.74059642	      2.34743676	    -14.82063824	     -3.86787002	     -1.52165271	     -1.01043184	      4.16933759	     -4.69245766	     15.95477408	    -33.20789534	    -23.37037781	     46.73039905	    132.01240596	    -32.30310943	      5.73813514	     19.67516921	      8.64347222	    -35.68011858	    -23.93416021	     54.15378401	    120.75566207	    -31.98356236	      6.81057407	     52.02158281
      0.01250000	     -2.08719617	    -14.94137385	     90.58901292	     -0.01122022	      2.05451746	      1.60157920	     16.74126783	     -6.50756632	      3.23882024	    -20.44463230	     11.09963616	     -5.33659423	      3.49458282	     14.81397160	     -0.81257974	      2.84031413	    -16.91825338	     11.27215859	     -2.73855415	      2.34799308	    -15.06821774	     -3.87036759	     -1.50780971	     -0.99407123	      4.24286808	     -4.70567379	     15.97341386	    -33.26765934	    -23.39711808	     46.98486401	    131.91710355	    -32.45002372	      5.72264552	     19.73820446	      8.73766455	    -35.69527641	    -24.05847730	     54.44232573	    120.86016629	    -32.00483278	      6.69150147	     52.01360222
      0.01500000	     -2.08536343	    -14.96045701	     90.58671249	     -0.01114247	      2.05450897	      1.60202955	     16.78496883	     -6.51397638	      3.23699314	    -20.43545807	     11.10317535	     -5.33459539	      3.49506095	     14.87871489	     -0.81717178	      2.83834234	    -16.90615692	     11.28038213	     -2.73957641	      2.34858319	    -15.14340166	     -3.86416312	     -1.50047982	     -1.00771655	      4.24738232	     -4.70204951	     15.99718324	    -33.30447820	    -23.41060142	     47.01937375	    131.90757257	    -32.46690076	      5.72086579	     19.74339156	      8.77265407	    -35.74106621	    -24.08960313	     54.47856251	    120.86925893	    -32.01214198	      6.67967031	     52.01070232
      0.01750000	     -2.08718412	    -14.96359054	     90.58698615	     -0.01113609	      2.05438765	      1.60209942	     16.78574629	     -6.51299050	      3.23673991	    -20.43569999	     11.10314066	     -5.33445907	      3.49507736	     14.87915270	     -0.81733651	      2.83812556	    -16.90680992	     11.28043845	     -2.73962743	      2.34858967	    -15.14698124	     -3.86361207	     -1.50015190	     -1.00842621	      4.24751550	     -4.70184732	     15.99790069	    -33.30440180	    -23.41047978	     47.02057536	    131.90740375	    -32.46724740	      5.72067880	     19.74351000	      8.77361654	    -35.74123279	    -24.08983210	     54.47990277	    120.86946403	    -32.01229779	      6.67924915	     52.01064067
      0.02000000	     -2.08592799	    -14.96404568	     90.57032817	     -0.01095999	      2.05451337	      1.60364785	     17.12813671	     -6.49291626	      3.19222528	    -20.86811222	     11.02851080	     -5.26452254	      3.50274923	     15.26300982	     -0.82007318	      2.74841621	    -17.44881249	     11.22983375	     -2.74436341	      2.34710176	    -15.44869598	     -3.87702302	     -1.48012998	     -0.98448441	      4.29621167	     -4.56886500	     16.01789572	    -33.34652406	    -23.48729460	     47.43568809	    131.79271289	    -32.64976039	      5.71955141	     19.80856107	      8.84691307	    -35.77545333	    -24.25314671	     54.88072885	    120.94887690	    -32.09102321	      6.53300839	     51.98826710
      0.02250000	     -2.08809778	    -15.00188492	     90.56632946	     -0.01088420	      2.05449054	      1.60426777	     17.21344465	     -6.49004623	      3.19459771	    -20.84050900	     11.03963347	     -5.25383209	      3.50515764	     15.34905998	     -0.82143385	      2.74361800	    -17.43279542	     11.24884997	     -2.74536208	      2.34854633	    -15.52186447	     -3.88004732	     -1.48457137	     -0.98667914	      4.29840216	     -4.55253781	     16.07399902	    -33.38181337	    -23.50158897	     47.50474265	    131.77574362	    -32.67226396	      5.71946115	     19.81870776	      8.90294621	    -35.81767187	    -24.28578779	     54.94517369	    120.95885607	    -32.10273382	      6.51233184	     51.98286859
      0.02500000	     -2.10528963	    -15.15604760	     90.53662061	     -0.01078325	      2.05424045	      1.60528863	     17.65057017	     -6.50030442	      3.20540868	    -21.23622287	     11.01574435	     -5.13416373	      3.52858490	     15.83244401	     -0.80259534	      2.66712126	    -17.94019472	     11.25419188	     -2.73119421	      2.35194417	    -15.55008938	     -3.89884757	     -1.50104952	     -0.77602905	      4.31121714	     -4.35014559	     16.03701275	    -33.35859462	    -23.58897949	     47.87222985	    131.59038910	    -32.84264704	      5.80797701	     19.94019564	      8.79463549	    -35.82890817	    -24.49004017	     55.25616591	    121.04078764	    -32.19143105	      6.36470160	     51.94426047
      0.02750000	     -2.10440987	    -15.19568484	     90.53293518	     -0.01073259	      2.05427138	      1.60589932	     17.72923564	     -6.49815167	      3.20629696	    -21.19874046	     11.03100092	     -5.12874767	      3.53117396	     15.90712065	     -0.80325799	      2.66560704	    -17.90249492	     11.27021840	     -2.73013741	      2.35303354	    -15.61206453	     -3.90249102	     -1.50751000	     -0.79602087	      4.31145700	     -4.34278831	     16.09572174	    -33.38212976	    -23.58542108	     47.92564200	    131.58148675	    -32.85317443	      5.80643478	     19.94953456	      8.84747250	    -35.85767306	    -24.50565691	     55.31320219	    121.04648242	    -32.19897761	      6.34736978	     51.93938267
      0.03000000	     -2.10690379	    -15.19629404	     90.53301117	     -0.01066171	      2.05411367	      1.60595674	     17.73085122	     -6.49826347	      3.20618871	    -21.19846742	     11.03110270	     -5.12864915	      3.53120933	     15.90918872	     -0.80342252	      2.66543726	    -17.90209234	     11.27032024	     -2.73013173	      2.35303873	    -15.61548923	     -3.90032603	     -1.50708732	     -0.79674269	      4.31160447	     -4.34258897	     16.09577828	    -33.38163876	    -23.58513950	     47.92606707	    131.58134574	    -32.85325294	      5.80646580	     19.94969039	      8.84770208	    -35.85788576	    -24.50584343	     55.31403941	    121.04659732	    -32.19915927	      6.34706275	     51.93928969
      0.03250000	     -2.11590733	    -15.30692108	     90.53274307	     -0.01053970	      2.05401552	      1.60751321	     18.19385675	     -6.50447174	      3.16516318	    -21.64283331	     11.00924710	     -5.05503579	      3.55568408	     16.39785811	     -0.79887306	      2.56282922	    -18.40221624	     11.22092405	     -2.69954141	      2.35388947	    -15.76876854	     -3.90584071	     -1.55944859	     -0.81756062	      4.31739652	     -4.19060407	     16.15567728	    -33.40061456	    -23.59910271	     48.31585223	    131.49203831	    -32.97947587	      5.87570191	     20.03548323	      8.77574865	    -35.95920140	    -24.63285773	     55.71228487	    121.10686296	    -32.32705998	      6.17938911	     51.87545724
      0.03500000	     -2.11811078	    -15.35759859	     90.53020369	     -0.01046352	      2.05398086	      1.60820264	     18.29172549	     -6.50121806	      3.16794458	    -21.60179279	     11.02680783	     -5.04657953	      3.55971088	     16.49426460	     -0.80028258	      2.56386402	    -18.36781718	     11.24313063	     -2.69523339	      2.35607594	    -15.83238048	     -3.90782945	     -1.57033908	     -0.82855846	      4.31856083	     -4.17708255	     16.22661978	    -33.43140958	    -23.59968675	     48.38172221	    131.48421697	    -32.99336166	      5.88056317	     20.04533801	      8.83267504	    -36.00023954	    -24.65944916	     55.77947709	    121.11132905	    -32.34579073	      6.15696920	     51.86377295
      0.03750000	     -2.11359537	    -16.24948513	     90.55563250	     -0.01044333	      2.05259173	      1.60987913	     19.57912357	     -6.49838082	      3.28608865	    -22.06063035	     11.14988307	     -4.81889985	      3.66739419	     17.84057528	     -0.78545489	      2.66307397	    -18.93403646	     11.42558451	     -2.53418633	      2.39361220	    -15.09205486	     -3.88957566	     -1.76512869	     -0.26207958	      4.34846952	     -3.83976621	     16.23568632	    -33.35565725	    -23.50314413	     48.85950647	    131.21407495	    -33.16528242	      6.35727710	     20.40702732	      8.34376164	    -35.98783773	    -25.12772730	     56.22779676	    121.16917990	    -32.72482495	      5.82330428	     51.57840378
      0.04000000	     -2.11223772	    -16.26097759	     90.55355129	     -0.01035408	      2.05261299	      1.61051265	     19.64957772	     -6.49145547	      3.26592091	    -22.06732647	     11.14765752	     -4.82691334	      3.66874421	     17.90471233	     -0.79190511	      2.65398052	    -18.93635341	     11.41650165	     -2.54009542	      2.39270475	    -15.18174264	     -3.89466570	     -1.76181302	     -0.35485734	      4.34056567	     -3.84043872	     16.28569428	    -33.40605057	    -23.49334462	     48.90380798	    131.22184603	    -33.17487247	      6.34619652	     20.41188371	      8.40432485	    -36.03896539	    -25.14038296	     56.29630039	    121.16935799	    -32.73009867	      5.80648595	     51.57406347
